# xmcd
#
# Track frame offsets: 
#        150
#        13613
#        32852
#        56954
#        90319
#        114593
#        136161
#        151585
#        166796
#        178508
#        190876
#        201495
#        215444
#        231212
#        244791
#        257736
#        269244
#        281911
#        297175
#
# Disc length: 4040 seconds
#
# Revision: 0
# Processed by: cddbd v1.5.2PL0 Copyright (c) Steve Scherf et al.
# Submitted via: ExactAudioCopy v0.95b4
#
DISCID=190fc613
DTITLE=Various Artist - Blues Anthology
DYEAR=2007
DGENRE=Blues
TTITLE0=Robert Johnson - Sweet Home Chicago
TTITLE1=John Lee Hooker/ Boom Boom
TTITLE2=Muddy Waters - Manish Boy
TTITLE3=Howlin' Wolf - The Red Rooster
TTITLE4=BB King - The Thrill Is Gone
TTITLE5=Freddie King - Hide Away
TTITLE6=Albert King - Born Under A Bad Sign
TTITLE7=Albert Collins - Frosty
TTITLE8=Otis Rush - All Your Love
TTITLE9=Elmore James - Dust In My Broom
TTITLE10=Jimmy Red - Baby What Do You Want Me To Do
TTITLE11=Jimmy Rogers - That's Allright
TTITLE12=Hound Dog Taylor - Ain't Got Nobody
TTITLE13=Missippi Fred McDowell - Kokomo Me Baby
TTITLE14=Arthur "Big Boy" Crudup - That's All Right
TTITLE15=Big Bill Broonzy - Key To The Highway
TTITLE16=Lightnin' Hopkins - Baby Please Don't Go
TTITLE17=Sonny Terry - Telephone Blues
TTITLE18=Leadbelly - Big Fat Woman
EXTD=
EXTT0=
EXTT1=
EXTT2=
EXTT3=
EXTT4=
EXTT5=
EXTT6=
EXTT7=
EXTT8=
EXTT9=
EXTT10=
EXTT11=
EXTT12=
EXTT13=
EXTT14=
EXTT15=
EXTT16=
EXTT17=
EXTT18=
PLAYORDER=
